<?xml version="1.0" encoding="UTF-8"?>
<svg id="Layer_1" xmlns="http://www.w3.org/2000/svg" version="1.1" viewBox="0 0 32 32">
  <!-- Generator: Adobe Illustrator 29.3.1, SVG Export Plug-In . SVG Version: 2.1.0 Build 151)  -->
  <defs>
    <style>
      .st0 {
        fill: #c5f097;
      }

      .st1 {
        fill: #0e0c12;
      }
    </style>
  </defs>
  <path class="st1" d="M0,0h32v32H0V0Z"/>
  <path class="st0" d="M26.1,13c-1.2,0-2.3.7-2.7,1.8h-3c-.6-2.9-3.1-5.1-6.2-5.1s-1.4.1-2.1.3l-1.5-2.6c.4-.5.6-1.1.6-1.7,0-1.6-1.3-3-3-3s-3,1.3-3,3,1.3,3,3,3,.2,0,.3,0l1.5,2.6c-1.3,1.2-2.2,2.9-2.2,4.8s.8,3.6,2.2,4.8l-1.5,2.6c-.1,0-.2,0-.3,0-1.6,0-3,1.3-3,3s1.3,3,3,3,3-1.3,3-3-.2-1.3-.6-1.7l1.5-2.6c.6.2,1.3.3,2.1.3,3.1,0,5.6-2.2,6.2-5.1h3c.5,1,1.5,1.8,2.7,1.8s3-1.3,3-3-1.3-3-3-3ZM14.2,19.8c-2.1,0-3.8-1.7-3.8-3.8s1.7-3.8,3.8-3.8,3.8,1.7,3.8,3.8-1.7,3.8-3.8,3.8Z"/>
</svg>